<?xml version="1.0" standalone="no"?>
<!DOCTYPE svg PUBLIC "-//W3C//DTD SVG 20010904//EN"
 "http://www.w3.org/TR/2001/REC-SVG-20010904/DTD/svg10.dtd">
<svg version="1.0" xmlns="http://www.w3.org/2000/svg"
 width="333.000000pt" height="187.000000pt" viewBox="0 0 333.000000 187.000000"
 preserveAspectRatio="xMidYMid meet">

<g transform="translate(0.000000,187.000000) scale(0.100000,-0.100000)"
fill="#ffffff" stroke="none">
<path d="M1195 1796 c-114 -30 -218 -65 -308 -107 -53 -24 -210 -323 -277
-527 -80 -247 -121 -589 -92 -782 7 -43 11 -47 92 -102 169 -115 482 -256 502
-226 40 61 108 178 108 187 0 6 -5 11 -11 11 -16 0 -179 81 -179 89 0 3 12 14
26 25 25 18 26 18 82 -7 206 -92 493 -129 733 -92 94 14 247 57 336 96 42 18
45 18 68 1 14 -9 25 -20 25 -23 0 -7 -164 -89 -179 -89 -6 0 -11 -2 -11 -5 0
-13 84 -162 115 -202 1 -2 35 8 76 22 107 36 320 144 419 212 99 68 98 66 99
256 2 370 -103 741 -300 1063 -56 91 -63 96 -239 156 -75 26 -282 80 -286 75
-1 -1 -16 -30 -33 -64 l-31 -63 -48 8 c-61 9 -373 9 -435 0 l-47 -8 -32 65
c-18 36 -35 65 -38 65 -3 -1 -63 -16 -135 -34z m142 -721 c128 -38 192 -206
129 -341 -75 -160 -273 -171 -362 -19 -84 143 -7 335 146 366 19 4 35 7 36 8
0 0 23 -6 51 -14z m789 -6 c72 -22 134 -125 134 -224 0 -135 -92 -237 -212
-237 -61 0 -114 27 -155 81 -109 142 -44 352 122 391 31 8 58 5 111 -11z"/>
</g>
</svg>
