<svg xmlns="http://www.w3.org/2000/svg" xmlns:xlink="http://www.w3.org/1999/xlink" viewBox="0 0 42 42"><defs><style>.cls-1{fill:url(#radial-gradient);}.cls-2{fill:url(#radial-gradient-2);}.cls-3{fill:url(#radial-gradient-3);}</style><radialGradient id="radial-gradient" cx="-1125.22" cy="560.94" r="0.05" gradientTransform="matrix(362.5, -525, -525, -362.5, 702399.3, -387367.45)" gradientUnits="userSpaceOnUse"><stop offset="0" stop-color="#ffff"/><stop offset="0.79" stop-color="#ffff"/><stop offset="1" stop-color="#ffff"/></radialGradient><radialGradient id="radial-gradient-2" cx="-1125.01" cy="560.77" r="0.05" gradientTransform="matrix(237.5, -512.5, -512.5, -237.5, 554597.87, -443342.02)" gradientUnits="userSpaceOnUse"><stop offset="0" stop-color="#ffff"/><stop offset="0.44" stop-color="#ffff"/><stop offset="0.71" stop-color="#ffff"/><stop offset="1" stop-color="#ffff" stop-opacity="0"/></radialGradient><radialGradient id="radial-gradient-3" cx="-1124.93" cy="559.1" r="0.05" gradientTransform="matrix(962.5, -137.5, -29.41, -205.87, 1099190.58, -39569.74)" gradientUnits="userSpaceOnUse"><stop offset="0.16" stop-color="#ffff"/><stop offset="0.47" stop-color="#ffff"/><stop offset="1" stop-color="#ffff" stop-opacity="0"/></radialGradient></defs><g id="Layer_2" data-name="Layer 2"><circle class="cls-1" cx="27.52" cy="15.24" r="1.78"/><circle class="cls-2" cx="27.52" cy="15.24" r="1.78"/><circle class="cls-3" cx="27.52" cy="15.24" r="1.78"/><path class="cls-1" d="M21,15.83a5.92,5.92,0,1,0,5.92,5.92A5.91,5.91,0,0,0,21,15.83Zm0,9.47a3.55,3.55,0,1,1,3.55-3.55A3.55,3.55,0,0,1,21,25.3Z"/><path class="cls-2" d="M21,15.83a5.92,5.92,0,1,0,5.92,5.92A5.91,5.91,0,0,0,21,15.83Zm0,9.47a3.55,3.55,0,1,1,3.55-3.55A3.55,3.55,0,0,1,21,25.3Z"/><path class="cls-3" d="M21,15.83a5.92,5.92,0,1,0,5.92,5.92A5.91,5.91,0,0,0,21,15.83Zm0,9.47a3.55,3.55,0,1,1,3.55-3.55A3.55,3.55,0,0,1,21,25.3Z"/><path class="cls-1" d="M29,10.69c-1.52-.78-3.51-.78-7.48-.78h-.95c-4,0-6,0-7.48.78A7.06,7.06,0,0,0,10,13.79c-.77,1.52-.77,3.51-.77,7.48v.95c0,4,0,6,.77,7.48a7.08,7.08,0,0,0,3.11,3.11c1.51.77,3.5.77,7.48.77h.95c4,0,6,0,7.48-.77a7.06,7.06,0,0,0,3.1-3.11c.78-1.52.78-3.5.78-7.48v-.95c0-4,0-6-.78-7.48A7,7,0,0,0,29,10.69Zm1.51,11.53c0,2,0,3.41-.09,4.47A5,5,0,0,1,30,28.63,4.74,4.74,0,0,1,27.9,30.7a5,5,0,0,1-1.94.42c-1.07.09-2.45.09-4.47.09h-.95c-2,0-3.41,0-4.47-.09a5,5,0,0,1-1.94-.42,4.81,4.81,0,0,1-2.07-2.07,5.17,5.17,0,0,1-.43-1.94c-.08-1.06-.08-2.44-.08-4.47v-.95c0-2,0-3.4.08-4.47a5.17,5.17,0,0,1,.43-1.94,4.81,4.81,0,0,1,2.07-2.07,5.22,5.22,0,0,1,1.94-.42c1.06-.09,2.44-.09,4.47-.09h.95c2,0,3.4,0,4.47.09a5.22,5.22,0,0,1,1.94.42A4.74,4.74,0,0,1,30,14.86a5,5,0,0,1,.43,1.94c.09,1.07.09,2.45.09,4.47Z"/><path class="cls-2" d="M29,10.69c-1.52-.78-3.51-.78-7.48-.78h-.95c-4,0-6,0-7.48.78A7.06,7.06,0,0,0,10,13.79c-.77,1.52-.77,3.51-.77,7.48v.95c0,4,0,6,.77,7.48a7.08,7.08,0,0,0,3.11,3.11c1.51.77,3.5.77,7.48.77h.95c4,0,6,0,7.48-.77a7.06,7.06,0,0,0,3.1-3.11c.78-1.52.78-3.5.78-7.48v-.95c0-4,0-6-.78-7.48A7,7,0,0,0,29,10.69Zm1.51,11.53c0,2,0,3.41-.09,4.47A5,5,0,0,1,30,28.63,4.74,4.74,0,0,1,27.9,30.7a5,5,0,0,1-1.94.42c-1.07.09-2.45.09-4.47.09h-.95c-2,0-3.41,0-4.47-.09a5,5,0,0,1-1.94-.42,4.81,4.81,0,0,1-2.07-2.07,5.17,5.17,0,0,1-.43-1.94c-.08-1.06-.08-2.44-.08-4.47v-.95c0-2,0-3.4.08-4.47a5.17,5.17,0,0,1,.43-1.94,4.81,4.81,0,0,1,2.07-2.07,5.22,5.22,0,0,1,1.94-.42c1.06-.09,2.44-.09,4.47-.09h.95c2,0,3.4,0,4.47.09a5.22,5.22,0,0,1,1.94.42A4.74,4.74,0,0,1,30,14.86a5,5,0,0,1,.43,1.94c.09,1.07.09,2.45.09,4.47Z"/><path class="cls-3" d="M29,10.69c-1.52-.78-3.51-.78-7.48-.78h-.95c-4,0-6,0-7.48.78A7.06,7.06,0,0,0,10,13.79c-.77,1.52-.77,3.51-.77,7.48v.95c0,4,0,6,.77,7.48a7.08,7.08,0,0,0,3.11,3.11c1.51.77,3.5.77,7.48.77h.95c4,0,6,0,7.48-.77a7.06,7.06,0,0,0,3.1-3.11c.78-1.52.78-3.5.78-7.48v-.95c0-4,0-6-.78-7.48A7,7,0,0,0,29,10.69Zm1.51,11.53c0,2,0,3.41-.09,4.47A5,5,0,0,1,30,28.63,4.74,4.74,0,0,1,27.9,30.7a5,5,0,0,1-1.94.42c-1.07.09-2.45.09-4.47.09h-.95c-2,0-3.41,0-4.47-.09a5,5,0,0,1-1.94-.42,4.81,4.81,0,0,1-2.07-2.07,5.17,5.17,0,0,1-.43-1.94c-.08-1.06-.08-2.44-.08-4.47v-.95c0-2,0-3.4.08-4.47a5.17,5.17,0,0,1,.43-1.94,4.81,4.81,0,0,1,2.07-2.07,5.22,5.22,0,0,1,1.94-.42c1.06-.09,2.44-.09,4.47-.09h.95c2,0,3.4,0,4.47.09a5.22,5.22,0,0,1,1.94.42A4.74,4.74,0,0,1,30,14.86a5,5,0,0,1,.43,1.94c.09,1.07.09,2.45.09,4.47Z"/></g></svg>