<?xml version="1.0" encoding="UTF-8"?>
<svg width="42px" height="42px" viewBox="0 0 42 42" version="1.1" xmlns="http://www.w3.org/2000/svg" xmlns:xlink="http://www.w3.org/1999/xlink">
    <title>youtube</title>
    <g id="HOME" stroke="none" stroke-width="1" fill="none" fill-rule="evenodd">
        <g id="Desktop-HD" transform="translate(-1344.000000, -6074.000000)" fill="#ffff" fill-rule="nonzero">
            <g id="Footer" transform="translate(0.000000, 5850.755960)">
                <g id="Footer/Links" transform="translate(348.500000, 0.000000)">
                    <g id="Social" transform="translate(895.500000, 194.244040)">
                        <g id="youtube" transform="translate(100.000000, 29.000000)">
                            <g transform="translate(9.000000, 13.000000)" id="Shape">
                                <path d="M22.5193927,2.53034786 C22.2548733,1.53434688 21.4755078,0.749927673 20.4859503,0.483723775 C18.6923063,0 11.5,0 11.5,0 C11.5,0 4.30773583,0 2.51404967,0.483723775 C1.52449216,0.749969788 0.745126654,1.53434688 0.480607323,2.53034786 C5.2366901e-16,4.33565755 5.2366901e-16,8.10226794 5.2366901e-16,8.10226794 C5.2366901e-16,8.10226794 5.2366901e-16,11.8688783 0.480607323,13.674188 C0.745126654,14.670189 1.52449216,15.4219276 2.51404967,15.6881315 C4.30773583,16.1718553 11.5,16.1718553 11.5,16.1718553 C11.5,16.1718553 18.6922642,16.1718553 20.4859503,15.6881315 C21.4755078,15.4219276 22.2548733,14.670189 22.5193927,13.674188 C23,11.8688783 23,8.10226794 23,8.10226794 C23,8.10226794 23,4.33565755 22.5193927,2.53034786 Z M9.147711,11.5220678 L9.147711,4.68246804 L15.1590507,8.10235217 L9.147711,11.5220678 Z"></path>
                            </g>
                        </g>
                    </g>
                </g>
            </g>
        </g>
    </g>
</svg>